<mxfile host="app.diagrams.net" modified="2022-07-12T02:21:53.485Z" agent="5.0 (Windows NT 10.0; Win64; x64) AppleWebKit/537.36 (KHTML, like Gecko) Chrome/103.0.0.0 Safari/537.36" etag="qUpKzBPamXPcY_GDI3At" version="20.0.4" type="github">
  <diagram id="81lEqVLcHvuvQnZxjGZk" name="Page-1">
    <mxGraphModel dx="1695" dy="482" grid="1" gridSize="10" guides="1" tooltips="1" connect="1" arrows="1" fold="1" page="1" pageScale="1" pageWidth="827" pageHeight="1169" math="0" shadow="0">
      <root>
        <mxCell id="0" />
        <mxCell id="1" parent="0" />
        <mxCell id="HaN9kB13RHzo98Y6u9yK-4" style="edgeStyle=orthogonalEdgeStyle;rounded=0;orthogonalLoop=1;jettySize=auto;html=1;exitX=0.5;exitY=1;exitDx=0;exitDy=0;entryX=0.5;entryY=0;entryDx=0;entryDy=0;dashed=1;strokeColor=default;endArrow=none;endFill=0;" edge="1" parent="1" source="HaN9kB13RHzo98Y6u9yK-1" target="HaN9kB13RHzo98Y6u9yK-3">
          <mxGeometry relative="1" as="geometry" />
        </mxCell>
        <mxCell id="HaN9kB13RHzo98Y6u9yK-1" value="&lt;b&gt;WopiAuthenticationFilter&lt;/b&gt;" style="rounded=0;whiteSpace=wrap;html=1;fillColor=#fff2cc;strokeColor=#d6b656;" vertex="1" parent="1">
          <mxGeometry x="90" y="130" width="220" height="40" as="geometry" />
        </mxCell>
        <mxCell id="HaN9kB13RHzo98Y6u9yK-11" style="edgeStyle=orthogonalEdgeStyle;rounded=0;orthogonalLoop=1;jettySize=auto;html=1;entryX=0.04;entryY=0.39;entryDx=0;entryDy=0;endArrow=block;endFill=1;strokeColor=default;entryPerimeter=0;" edge="1" parent="1" target="HaN9kB13RHzo98Y6u9yK-14">
          <mxGeometry relative="1" as="geometry">
            <mxPoint x="225" y="323" as="sourcePoint" />
            <mxPoint x="455" y="323" as="targetPoint" />
          </mxGeometry>
        </mxCell>
        <mxCell id="HaN9kB13RHzo98Y6u9yK-3" value="" style="rounded=0;whiteSpace=wrap;html=1;" vertex="1" parent="1">
          <mxGeometry x="175" y="240" width="50" height="210" as="geometry" />
        </mxCell>
        <mxCell id="HaN9kB13RHzo98Y6u9yK-7" style="edgeStyle=orthogonalEdgeStyle;rounded=0;orthogonalLoop=1;jettySize=auto;html=1;entryX=0;entryY=0.25;entryDx=0;entryDy=0;endArrow=block;endFill=1;strokeColor=default;" edge="1" parent="1" source="HaN9kB13RHzo98Y6u9yK-6" target="HaN9kB13RHzo98Y6u9yK-3">
          <mxGeometry relative="1" as="geometry" />
        </mxCell>
        <mxCell id="HaN9kB13RHzo98Y6u9yK-6" value="1. 提交请求，&lt;br&gt;在RequestParam里携带Access Token&amp;nbsp;" style="text;html=1;strokeColor=none;fillColor=none;align=center;verticalAlign=middle;whiteSpace=wrap;rounded=0;" vertex="1" parent="1">
          <mxGeometry x="-10" y="280" width="110" height="30" as="geometry" />
        </mxCell>
        <mxCell id="HaN9kB13RHzo98Y6u9yK-8" value="2.&amp;nbsp;attemptAuthentication&lt;br&gt;检查 token&amp;nbsp;是否不为空，如果检查通过则将token封装成AuthenticationToken&amp;nbsp;object" style="text;html=1;strokeColor=none;fillColor=none;align=center;verticalAlign=middle;whiteSpace=wrap;rounded=0;" vertex="1" parent="1">
          <mxGeometry x="230" y="200" width="160" height="60" as="geometry" />
        </mxCell>
        <mxCell id="HaN9kB13RHzo98Y6u9yK-15" style="edgeStyle=orthogonalEdgeStyle;rounded=0;orthogonalLoop=1;jettySize=auto;html=1;endArrow=none;endFill=0;strokeColor=default;dashed=1;" edge="1" parent="1" source="HaN9kB13RHzo98Y6u9yK-13" target="HaN9kB13RHzo98Y6u9yK-14">
          <mxGeometry relative="1" as="geometry" />
        </mxCell>
        <mxCell id="HaN9kB13RHzo98Y6u9yK-13" value="&lt;b&gt;WopiAuthenticationProvider&lt;/b&gt;" style="rounded=0;whiteSpace=wrap;html=1;fillColor=#fff2cc;strokeColor=#d6b656;" vertex="1" parent="1">
          <mxGeometry x="405" y="130" width="220" height="40" as="geometry" />
        </mxCell>
        <mxCell id="HaN9kB13RHzo98Y6u9yK-21" style="edgeStyle=orthogonalEdgeStyle;rounded=0;orthogonalLoop=1;jettySize=auto;html=1;exitX=0;exitY=0.75;exitDx=0;exitDy=0;entryX=1;entryY=0.75;entryDx=0;entryDy=0;endArrow=classic;endFill=1;strokeColor=#CC6600;dashed=1;" edge="1" parent="1" source="HaN9kB13RHzo98Y6u9yK-14" target="HaN9kB13RHzo98Y6u9yK-3">
          <mxGeometry relative="1" as="geometry" />
        </mxCell>
        <mxCell id="HaN9kB13RHzo98Y6u9yK-35" style="edgeStyle=orthogonalEdgeStyle;rounded=0;orthogonalLoop=1;jettySize=auto;html=1;entryX=0.009;entryY=0.44;entryDx=0;entryDy=0;entryPerimeter=0;endArrow=classic;endFill=1;strokeColor=#000000;" edge="1" parent="1" source="HaN9kB13RHzo98Y6u9yK-14" target="HaN9kB13RHzo98Y6u9yK-23">
          <mxGeometry relative="1" as="geometry">
            <Array as="points">
              <mxPoint x="600" y="337" />
              <mxPoint x="600" y="337" />
            </Array>
          </mxGeometry>
        </mxCell>
        <mxCell id="HaN9kB13RHzo98Y6u9yK-14" value="" style="rounded=0;whiteSpace=wrap;html=1;" vertex="1" parent="1">
          <mxGeometry x="490" y="240" width="50" height="210" as="geometry" />
        </mxCell>
        <mxCell id="HaN9kB13RHzo98Y6u9yK-17" value="3.调用Provider的authenticate方法进行认证" style="text;html=1;strokeColor=none;fillColor=none;align=center;verticalAlign=middle;whiteSpace=wrap;rounded=0;" vertex="1" parent="1">
          <mxGeometry x="320" y="280" width="140" height="30" as="geometry" />
        </mxCell>
        <mxCell id="HaN9kB13RHzo98Y6u9yK-19" value="3.1.&amp;nbsp; 如果decode成功，则根据access&amp;nbsp;token，去db找到对应的record" style="text;html=1;strokeColor=none;fillColor=none;align=center;verticalAlign=middle;whiteSpace=wrap;rounded=0;" vertex="1" parent="1">
          <mxGeometry x="630" y="290" width="140" height="30" as="geometry" />
        </mxCell>
        <mxCell id="HaN9kB13RHzo98Y6u9yK-20" value="3.2 将access_token, username, docId, expired_date等信息封装在wopiauthentication detail object里&amp;nbsp;" style="text;html=1;strokeColor=none;fillColor=none;align=center;verticalAlign=middle;whiteSpace=wrap;rounded=0;" vertex="1" parent="1">
          <mxGeometry x="615" y="420" width="130" height="30" as="geometry" />
        </mxCell>
        <mxCell id="HaN9kB13RHzo98Y6u9yK-22" value="4.&amp;nbsp;返回wopiauthentication detail object" style="text;html=1;strokeColor=none;fillColor=none;align=center;verticalAlign=middle;whiteSpace=wrap;rounded=0;" vertex="1" parent="1">
          <mxGeometry x="260" y="360" width="170" height="30" as="geometry" />
        </mxCell>
        <mxCell id="HaN9kB13RHzo98Y6u9yK-36" style="edgeStyle=orthogonalEdgeStyle;rounded=0;orthogonalLoop=1;jettySize=auto;html=1;exitX=0;exitY=0;exitDx=0;exitDy=105;exitPerimeter=0;entryX=0.98;entryY=0.69;entryDx=0;entryDy=0;entryPerimeter=0;endArrow=classic;endFill=1;strokeColor=#CC6600;dashed=1;" edge="1" parent="1" source="HaN9kB13RHzo98Y6u9yK-23" target="HaN9kB13RHzo98Y6u9yK-14">
          <mxGeometry relative="1" as="geometry" />
        </mxCell>
        <mxCell id="HaN9kB13RHzo98Y6u9yK-23" value="" style="shape=cylinder3;whiteSpace=wrap;html=1;boundedLbl=1;backgroundOutline=1;size=15;" vertex="1" parent="1">
          <mxGeometry x="780" y="280" width="90" height="130" as="geometry" />
        </mxCell>
      </root>
    </mxGraphModel>
  </diagram>
</mxfile>
